<svg id="svg" xmlns="http://www.w3.org/2000/svg" xmlns:xlink="http://www.w3.org/1999/xlink" width="400" height="46.63428174878556" viewBox="0, 0, 400,46.63428174878556"><g id="svgg"><path id="path0" d="M189.495 0.304 C 188.850 1.104,188.585 2.327,189.000 2.583 C 189.092 2.640,189.167 3.057,189.167 3.510 C 189.167 3.963,189.242 4.333,189.333 4.333 C 189.426 4.333,189.500 4.778,189.500 5.333 C 189.500 5.889,189.426 6.333,189.333 6.333 C 189.229 6.333,189.167 7.389,189.167 9.167 C 189.167 10.944,189.229 12.000,189.333 12.000 C 189.441 12.000,189.500 13.917,189.500 17.417 C 189.500 20.917,189.441 22.833,189.333 22.833 C 188.934 22.833,189.141 25.653,189.574 26.121 C 190.181 26.775,191.707 26.858,192.417 26.276 L 192.917 25.865 192.970 22.099 C 193.000 19.923,193.088 18.333,193.178 18.333 C 193.263 18.333,193.333 18.221,193.333 18.083 C 193.333 17.946,193.407 17.833,193.497 17.833 C 193.587 17.833,193.707 17.646,193.765 17.417 C 193.822 17.187,193.936 17.000,194.018 17.000 C 194.100 17.000,194.167 16.887,194.167 16.750 C 194.167 16.612,194.237 16.500,194.322 16.500 C 194.408 16.500,194.529 16.336,194.593 16.137 C 194.705 15.785,196.704 13.667,196.924 13.667 C 196.984 13.667,197.279 13.550,197.581 13.407 C 198.348 13.043,199.656 13.142,199.900 13.583 C 200.001 13.767,200.158 13.970,200.250 14.036 C 200.351 14.108,200.431 15.707,200.454 18.106 C 200.477 20.531,200.558 22.124,200.663 22.229 C 200.756 22.323,200.833 22.798,200.833 23.283 C 200.833 23.769,200.898 24.167,200.977 24.167 C 201.056 24.167,201.162 24.628,201.213 25.191 C 201.349 26.684,202.610 27.722,203.627 27.179 C 203.786 27.094,204.055 26.981,204.224 26.928 C 204.393 26.875,204.571 26.682,204.619 26.499 C 204.666 26.316,204.772 26.167,204.853 26.167 C 205.054 26.167,205.041 24.042,204.840 23.972 C 204.751 23.942,204.627 22.698,204.564 21.208 C 204.501 19.719,204.385 18.500,204.308 18.500 C 204.230 18.500,204.167 17.300,204.167 15.833 C 204.167 14.367,204.102 13.167,204.023 13.167 C 203.944 13.167,203.836 12.737,203.781 12.211 C 203.727 11.685,203.604 11.229,203.508 11.197 C 203.412 11.165,203.333 11.064,203.333 10.973 C 203.333 9.696,198.360 8.670,196.606 9.584 C 196.343 9.721,196.025 9.833,195.898 9.833 C 195.771 9.833,195.667 9.907,195.667 9.997 C 195.667 10.087,195.477 10.208,195.246 10.266 C 195.015 10.324,194.734 10.499,194.621 10.655 C 194.509 10.811,194.173 11.081,193.875 11.255 C 193.577 11.429,193.333 11.668,193.333 11.786 C 193.333 11.904,193.263 12.000,193.177 12.000 C 193.083 12.000,192.999 9.738,192.969 6.389 C 192.929 2.085,192.868 0.761,192.708 0.708 C 192.594 0.670,192.500 0.541,192.500 0.422 C 192.500 -0.090,189.896 -0.192,189.495 0.304 M164.792 1.450 C 163.127 1.485,162.000 1.574,162.000 1.671 C 162.000 1.771,160.781 1.833,158.833 1.833 C 156.833 1.833,155.667 1.895,155.667 2.000 C 155.667 2.092,155.419 2.167,155.117 2.167 C 154.814 2.167,154.477 2.257,154.367 2.367 C 154.126 2.608,154.097 4.000,154.333 4.000 C 154.425 4.000,154.500 4.106,154.500 4.236 C 154.500 4.366,154.594 4.503,154.708 4.542 C 154.964 4.627,154.915 12.215,154.658 12.306 C 154.414 12.391,154.459 15.645,154.708 15.923 C 154.823 16.051,155.013 16.270,155.132 16.411 C 155.284 16.592,155.659 16.667,156.420 16.667 L 157.493 16.667 158.651 15.505 C 159.287 14.866,159.851 14.208,159.903 14.043 C 159.955 13.878,160.261 13.602,160.582 13.429 C 160.904 13.256,161.167 13.057,161.167 12.987 C 161.167 12.917,161.392 12.810,161.667 12.750 C 161.942 12.690,162.167 12.571,162.167 12.487 C 162.167 12.402,162.504 12.333,162.917 12.333 C 163.329 12.333,163.667 12.258,163.667 12.167 C 163.667 12.075,164.042 12.000,164.500 12.000 C 164.958 12.000,165.333 12.067,165.333 12.149 C 165.333 12.230,165.521 12.344,165.750 12.402 C 166.307 12.542,167.289 13.514,167.426 14.061 C 167.487 14.302,167.603 14.500,167.685 14.500 C 167.766 14.500,167.833 14.681,167.833 14.903 C 167.833 15.124,167.927 15.337,168.042 15.375 C 168.330 15.471,168.320 20.032,168.031 20.129 C 167.922 20.165,167.833 20.301,167.833 20.431 C 167.833 20.560,167.766 20.667,167.685 20.667 C 167.603 20.667,167.487 20.861,167.428 21.098 C 167.368 21.335,167.135 21.713,166.910 21.939 C 166.684 22.164,166.500 22.425,166.500 22.519 C 166.500 22.741,166.074 23.167,165.853 23.167 C 165.759 23.167,165.489 23.359,165.254 23.594 C 165.019 23.830,164.565 24.064,164.247 24.116 C 163.928 24.168,163.667 24.275,163.667 24.355 C 163.667 24.435,162.957 24.500,162.089 24.500 C 160.225 24.500,159.595 24.266,158.591 23.201 C 157.277 21.808,156.357 21.662,155.125 22.651 C 154.633 23.046,154.715 24.867,155.250 25.402 C 155.479 25.631,155.667 25.895,155.667 25.988 C 155.667 26.082,155.892 26.274,156.167 26.417 C 156.442 26.559,156.667 26.730,156.668 26.796 C 156.669 26.984,157.656 27.500,158.014 27.500 C 158.189 27.500,158.333 27.575,158.333 27.667 C 158.333 27.758,158.506 27.833,158.717 27.833 C 158.928 27.833,159.187 27.920,159.294 28.027 C 159.557 28.290,164.545 28.282,164.633 28.018 C 164.667 27.917,164.876 27.833,165.097 27.833 C 165.319 27.833,165.500 27.758,165.500 27.667 C 165.500 27.575,165.657 27.500,165.850 27.500 C 166.249 27.500,167.309 27.034,167.637 26.715 C 167.758 26.597,167.920 26.500,167.998 26.500 C 168.221 26.500,170.000 24.645,170.000 24.413 C 170.000 24.297,170.112 24.159,170.250 24.106 C 170.387 24.054,170.500 23.858,170.500 23.672 C 170.500 23.486,170.575 23.333,170.667 23.333 C 170.758 23.333,170.833 23.221,170.833 23.083 C 170.833 22.946,170.907 22.833,170.998 22.833 C 171.089 22.833,171.211 22.533,171.269 22.167 C 171.328 21.800,171.441 21.500,171.521 21.500 C 171.601 21.500,171.667 21.237,171.667 20.917 C 171.667 20.596,171.742 20.333,171.833 20.333 C 171.937 20.333,172.000 19.389,172.000 17.833 C 172.000 16.278,171.937 15.333,171.833 15.333 C 171.742 15.333,171.667 15.033,171.667 14.667 C 171.667 14.300,171.601 14.000,171.521 14.000 C 171.441 14.000,171.328 13.700,171.269 13.333 C 171.211 12.967,171.089 12.667,170.998 12.667 C 170.907 12.667,170.833 12.517,170.833 12.333 C 170.833 12.150,170.766 12.000,170.685 12.000 C 170.603 12.000,170.489 11.813,170.432 11.583 C 170.374 11.354,170.253 11.167,170.163 11.167 C 170.074 11.167,170.000 11.080,170.000 10.974 C 170.000 10.691,168.662 9.505,168.217 9.393 C 168.006 9.340,167.833 9.230,167.833 9.149 C 167.833 9.067,167.690 9.000,167.514 9.000 C 167.338 9.000,167.163 8.906,167.125 8.792 C 167.027 8.499,161.597 8.503,161.303 8.797 C 161.192 8.908,160.927 9.000,160.717 9.000 C 160.506 9.000,160.333 9.072,160.333 9.159 C 160.333 9.247,160.071 9.367,159.750 9.428 C 159.429 9.488,159.167 9.604,159.167 9.685 C 159.167 9.767,159.054 9.833,158.917 9.833 C 158.714 9.833,158.667 9.565,158.667 8.417 C 158.667 7.583,158.735 7.000,158.833 7.000 C 158.925 7.000,159.000 6.637,159.000 6.193 L 159.000 5.386 161.875 5.277 C 163.456 5.217,165.556 5.167,166.542 5.167 C 167.625 5.167,168.333 5.101,168.333 5.000 C 168.333 4.908,168.596 4.833,168.917 4.833 C 169.237 4.833,169.500 4.766,169.500 4.685 C 169.500 4.603,169.686 4.489,169.914 4.432 C 170.416 4.306,170.571 3.799,170.461 2.648 C 170.331 1.296,170.500 1.331,164.792 1.450 M113.341 5.280 C 112.039 5.553,111.480 7.919,112.458 9.017 C 113.215 9.867,116.167 9.597,116.167 8.679 C 116.167 8.580,116.242 8.500,116.333 8.500 C 116.426 8.500,116.500 8.056,116.500 7.500 C 116.500 5.803,115.201 4.890,113.341 5.280 M216.667 9.143 C 216.667 9.222,216.310 9.331,215.875 9.385 C 215.051 9.486,214.170 9.826,214.168 10.042 C 214.167 10.110,214.056 10.167,213.920 10.167 C 213.668 10.167,211.333 12.430,211.333 12.674 C 211.333 12.749,211.240 12.912,211.125 13.036 C 210.766 13.427,210.527 13.937,210.410 14.563 C 210.347 14.895,210.230 15.167,210.148 15.167 C 210.067 15.167,210.000 15.467,210.000 15.833 C 210.000 16.200,209.925 16.500,209.833 16.500 C 209.731 16.500,209.667 17.333,209.667 18.667 C 209.667 20.000,209.731 20.833,209.833 20.833 C 209.925 20.833,210.000 21.096,210.000 21.417 C 210.000 21.738,210.065 22.000,210.145 22.000 C 210.225 22.000,210.339 22.300,210.397 22.667 C 210.456 23.033,210.578 23.333,210.669 23.333 C 210.759 23.333,210.833 23.483,210.833 23.667 C 210.833 23.850,210.911 24.000,211.005 24.000 C 211.100 24.000,211.225 24.131,211.283 24.292 C 211.408 24.633,212.522 25.833,212.715 25.833 C 212.788 25.833,213.013 25.988,213.215 26.178 C 213.418 26.368,213.790 26.565,214.042 26.616 C 214.294 26.667,214.500 26.774,214.500 26.854 C 214.500 26.934,214.683 27.000,214.907 27.000 C 215.131 27.000,215.360 27.075,215.417 27.167 C 215.474 27.260,216.252 27.333,217.177 27.333 C 218.170 27.333,218.833 27.267,218.833 27.167 C 218.833 27.075,219.096 27.000,219.417 27.000 C 219.737 27.000,220.000 26.933,220.000 26.851 C 220.000 26.770,220.169 26.659,220.375 26.606 C 220.581 26.552,220.968 26.319,221.234 26.088 C 221.501 25.856,221.787 25.667,221.871 25.667 C 222.045 25.667,222.500 25.245,222.500 25.083 C 222.500 25.024,222.594 24.872,222.708 24.744 C 223.203 24.192,223.333 24.004,223.333 23.840 C 223.333 23.745,223.403 23.667,223.489 23.667 C 223.574 23.667,223.697 23.498,223.761 23.292 C 223.826 23.085,223.930 22.879,223.992 22.833 C 224.243 22.650,224.667 21.287,224.667 20.663 C 224.667 20.298,224.742 20.000,224.833 20.000 C 224.937 20.000,225.000 19.083,225.000 17.583 C 225.000 16.254,224.935 15.167,224.855 15.167 C 224.775 15.167,224.659 14.717,224.597 14.167 C 224.534 13.617,224.412 13.167,224.325 13.167 C 224.238 13.167,224.167 12.979,224.167 12.750 C 224.167 12.521,224.097 12.333,224.011 12.333 C 223.926 12.333,223.803 12.165,223.737 11.958 C 223.672 11.752,223.480 11.462,223.309 11.314 C 223.139 11.166,223.000 10.991,223.000 10.927 C 223.000 10.753,222.624 10.413,222.292 10.288 C 222.131 10.227,222.000 10.100,222.000 10.005 C 222.000 9.911,221.850 9.833,221.667 9.833 C 221.483 9.833,221.333 9.759,221.333 9.669 C 221.333 9.578,221.033 9.456,220.667 9.397 C 220.300 9.339,220.000 9.225,220.000 9.145 C 220.000 9.065,219.250 9.000,218.333 9.000 C 217.417 9.000,216.667 9.065,216.667 9.143 M231.208 9.227 C 231.002 9.329,230.833 9.501,230.833 9.609 C 230.833 9.717,230.740 9.837,230.625 9.875 C 230.483 9.922,230.398 10.458,230.359 11.555 C 230.327 12.442,230.233 13.167,230.151 13.167 C 230.065 13.167,230.000 14.896,230.000 17.167 C 230.000 19.367,230.064 21.167,230.143 21.167 C 230.222 21.167,230.326 22.008,230.375 23.036 C 230.429 24.182,230.535 24.928,230.648 24.966 C 230.750 25.000,230.833 25.124,230.833 25.242 C 230.833 25.529,232.316 27.000,232.605 27.000 C 232.731 27.000,232.833 27.070,232.833 27.155 C 232.833 27.240,233.247 27.361,233.752 27.424 C 234.258 27.487,234.712 27.605,234.762 27.686 C 234.879 27.875,237.833 27.880,237.833 27.691 C 237.833 27.612,238.334 27.501,238.946 27.444 C 239.558 27.387,240.113 27.254,240.178 27.148 C 240.253 27.026,240.343 27.102,240.422 27.353 C 240.566 27.809,241.112 28.333,241.442 28.333 C 241.566 28.333,241.667 28.408,241.667 28.500 C 241.667 28.592,241.892 28.667,242.167 28.667 C 242.442 28.667,242.667 28.592,242.667 28.500 C 242.667 28.408,242.800 28.333,242.963 28.333 C 243.268 28.333,243.833 27.791,243.833 27.498 C 243.833 27.407,243.898 27.333,243.978 27.333 C 244.057 27.333,244.177 24.915,244.244 21.958 C 244.311 19.002,244.434 16.558,244.516 16.528 C 244.599 16.497,244.667 15.808,244.667 14.996 C 244.667 14.184,244.742 13.473,244.833 13.417 C 244.925 13.360,245.000 12.643,245.000 11.823 C 245.000 10.941,244.932 10.333,244.833 10.333 C 244.742 10.333,244.667 10.221,244.667 10.083 C 244.667 9.946,244.554 9.833,244.417 9.833 C 244.279 9.833,244.167 9.758,244.167 9.667 C 244.167 9.572,243.677 9.500,243.031 9.500 C 241.548 9.500,241.167 9.808,241.167 11.006 C 241.167 11.461,241.092 11.833,241.000 11.833 C 240.894 11.833,240.833 13.056,240.833 15.167 C 240.833 17.278,240.772 18.500,240.667 18.500 C 240.563 18.500,240.500 19.417,240.500 20.917 C 240.500 23.198,240.482 23.333,240.177 23.333 C 239.999 23.333,239.807 23.408,239.750 23.500 C 239.693 23.592,239.239 23.667,238.740 23.667 C 238.241 23.667,237.833 23.742,237.833 23.833 C 237.833 23.926,237.389 24.000,236.833 24.000 C 236.278 24.000,235.833 23.926,235.833 23.833 C 235.833 23.742,235.695 23.667,235.526 23.667 C 234.593 23.667,234.167 23.192,234.167 22.154 C 234.167 21.607,234.092 21.167,234.000 21.167 C 233.895 21.167,233.833 20.083,233.833 18.250 C 233.833 16.417,233.895 15.333,234.000 15.333 C 234.097 15.333,234.167 14.781,234.167 14.010 C 234.167 13.282,234.242 12.640,234.333 12.583 C 234.425 12.527,234.500 11.960,234.500 11.323 C 234.500 10.663,234.428 10.167,234.333 10.167 C 234.242 10.167,234.167 10.086,234.167 9.988 C 234.167 9.694,233.714 9.333,233.345 9.333 C 233.155 9.333,233.000 9.258,233.000 9.167 C 233.000 8.946,231.685 8.990,231.208 9.227 M260.000 9.155 C 260.000 9.240,259.587 9.361,259.081 9.424 C 258.576 9.487,258.121 9.605,258.071 9.686 C 258.021 9.767,257.685 9.833,257.323 9.833 C 256.962 9.833,256.667 9.901,256.667 9.983 C 256.667 10.065,256.141 10.186,255.499 10.250 C 254.857 10.315,254.290 10.435,254.240 10.517 C 254.189 10.599,253.964 10.667,253.740 10.667 C 253.516 10.667,253.333 10.732,253.333 10.812 C 253.333 10.892,253.051 11.002,252.707 11.058 C 252.357 11.113,251.972 11.307,251.837 11.496 C 251.703 11.681,251.504 11.833,251.395 11.833 C 251.286 11.833,251.001 12.077,250.762 12.375 C 250.524 12.673,250.254 13.007,250.164 13.118 C 250.074 13.229,250.000 13.466,250.000 13.646 C 250.000 13.825,249.911 14.002,249.802 14.038 C 249.516 14.134,249.506 17.696,249.792 17.792 C 249.906 17.830,250.000 17.967,250.000 18.097 C 250.000 18.227,250.070 18.333,250.155 18.333 C 250.241 18.333,250.358 18.483,250.417 18.667 C 250.475 18.851,250.669 19.000,250.850 19.000 C 251.030 19.000,251.220 19.112,251.273 19.250 C 251.326 19.387,251.548 19.500,251.768 19.500 C 251.987 19.500,252.167 19.572,252.167 19.661 C 252.167 19.749,252.542 19.872,253.000 19.932 C 253.458 19.993,253.833 20.108,253.833 20.188 C 253.833 20.268,254.096 20.333,254.417 20.333 C 254.737 20.333,255.000 20.401,255.000 20.484 C 255.000 20.567,255.375 20.687,255.833 20.750 C 256.292 20.813,256.667 20.933,256.667 21.016 C 256.667 21.099,256.779 21.167,256.917 21.167 C 257.054 21.167,257.167 21.237,257.167 21.322 C 257.167 21.408,257.332 21.530,257.534 21.594 C 257.954 21.727,258.333 22.066,258.333 22.308 C 258.333 22.398,258.418 22.500,258.520 22.535 C 259.055 22.713,258.605 24.500,258.026 24.500 C 257.935 24.500,257.830 24.594,257.792 24.708 C 257.694 25.003,253.138 24.999,253.040 24.704 C 253.003 24.592,252.791 24.500,252.569 24.500 C 252.348 24.500,252.167 24.425,252.167 24.333 C 252.167 24.242,252.055 24.167,251.918 24.167 C 251.781 24.167,251.455 23.942,251.192 23.667 C 250.495 22.937,249.173 22.937,248.476 23.665 C 247.987 24.177,247.741 26.167,248.167 26.167 C 248.258 26.167,248.333 26.252,248.333 26.356 C 248.333 26.620,249.079 27.283,249.536 27.426 C 249.745 27.491,249.954 27.595,250.000 27.656 C 250.172 27.886,251.317 28.333,251.734 28.333 C 251.972 28.333,252.167 28.408,252.167 28.500 C 252.167 28.592,252.500 28.667,252.907 28.667 C 253.314 28.667,253.693 28.742,253.750 28.833 C 253.807 28.925,254.554 29.000,255.417 29.000 C 256.279 29.000,257.027 28.925,257.083 28.833 C 257.140 28.742,257.482 28.667,257.843 28.667 C 258.204 28.667,258.500 28.592,258.500 28.500 C 258.500 28.408,258.657 28.333,258.850 28.333 C 259.712 28.333,261.833 26.725,261.833 26.071 C 261.833 25.940,261.908 25.833,262.000 25.833 C 262.092 25.833,262.167 25.646,262.167 25.417 C 262.167 25.188,262.242 25.000,262.333 25.000 C 262.433 25.000,262.500 24.361,262.500 23.417 C 262.500 22.472,262.433 21.833,262.333 21.833 C 262.242 21.833,262.167 21.650,262.167 21.427 C 262.167 21.203,262.100 20.978,262.018 20.928 C 261.937 20.878,261.822 20.643,261.762 20.406 C 261.646 19.943,260.265 18.500,259.938 18.500 C 259.829 18.500,259.634 18.353,259.504 18.173 C 259.375 17.993,259.058 17.799,258.801 17.743 C 258.544 17.686,258.333 17.571,258.333 17.487 C 258.333 17.402,258.146 17.333,257.917 17.333 C 257.688 17.333,257.500 17.265,257.500 17.182 C 257.500 17.099,257.125 16.980,256.667 16.917 C 256.208 16.854,255.833 16.734,255.833 16.651 C 255.833 16.568,255.571 16.500,255.250 16.500 C 254.929 16.500,254.667 16.430,254.667 16.343 C 254.667 16.257,254.391 16.164,254.055 16.135 C 253.718 16.107,253.414 15.996,253.379 15.890 C 253.305 15.663,254.151 14.833,254.457 14.833 C 254.572 14.833,254.667 14.764,254.667 14.680 C 254.667 14.596,254.891 14.477,255.165 14.417 C 255.439 14.357,255.706 14.238,255.758 14.154 C 255.810 14.069,256.074 14.000,256.343 14.000 C 256.613 14.000,256.833 13.934,256.833 13.853 C 256.833 13.772,257.320 13.653,257.915 13.590 C 258.510 13.526,259.039 13.405,259.091 13.320 C 259.308 12.970,259.667 13.180,259.667 13.657 C 259.667 13.926,259.742 14.193,259.833 14.250 C 259.925 14.307,260.000 14.499,260.000 14.677 C 260.000 15.733,261.911 16.068,262.828 15.172 L 263.333 14.678 263.333 12.422 C 263.333 11.030,263.270 10.167,263.167 10.167 C 263.075 10.167,263.000 10.047,263.000 9.902 C 263.000 9.342,262.309 9.011,261.125 9.006 C 260.506 9.002,260.000 9.070,260.000 9.155 M77.333 10.833 C 77.333 10.925,77.224 11.000,77.090 11.000 C 76.361 11.000,75.705 13.528,76.333 13.917 C 76.425 13.973,76.500 14.315,76.500 14.677 C 76.500 15.038,76.575 15.333,76.667 15.333 C 76.758 15.333,76.833 15.665,76.833 16.069 L 76.833 16.805 74.867 16.861 C 72.365 16.932,72.000 17.183,72.000 18.833 C 72.000 20.510,72.264 20.667,75.076 20.667 L 77.333 20.667 77.333 21.083 C 77.333 21.313,77.401 21.500,77.484 21.500 C 77.567 21.500,77.688 22.287,77.754 23.250 C 77.819 24.212,77.939 25.000,78.020 25.000 C 78.101 25.000,78.167 25.375,78.167 25.833 C 78.167 26.292,78.232 26.667,78.312 26.667 C 78.392 26.667,78.511 27.492,78.576 28.500 C 78.641 29.508,78.763 30.333,78.847 30.333 C 78.931 30.333,79.000 31.008,79.000 31.833 C 79.000 32.722,79.068 33.333,79.167 33.333 C 79.258 33.333,79.333 33.515,79.333 33.738 C 79.333 34.723,82.333 35.172,82.470 34.208 C 82.499 34.002,82.593 33.833,82.678 33.833 C 82.764 33.833,82.833 33.646,82.833 33.417 C 82.833 33.188,82.908 33.000,83.000 33.000 C 83.092 33.000,83.167 32.587,83.167 32.083 C 83.167 31.579,83.092 31.167,83.000 31.167 C 82.907 31.167,82.833 30.722,82.833 30.167 C 82.833 29.617,82.766 29.167,82.683 29.167 C 82.600 29.167,82.479 28.304,82.413 27.250 C 82.347 26.196,82.227 25.333,82.147 25.333 C 82.066 25.333,82.000 24.958,82.000 24.500 C 82.000 24.042,81.936 23.667,81.857 23.667 C 81.779 23.667,81.661 22.899,81.597 21.962 C 81.530 20.998,81.398 20.206,81.291 20.140 C 81.187 20.076,81.567 19.971,82.134 19.907 C 82.702 19.843,83.167 19.725,83.167 19.645 C 83.167 19.565,83.729 19.500,84.417 19.500 C 85.104 19.500,85.667 19.433,85.667 19.351 C 85.667 19.270,85.845 19.158,86.062 19.104 C 86.849 18.906,86.929 16.000,86.147 16.000 C 85.975 16.000,85.833 15.925,85.833 15.833 C 85.833 15.628,82.385 15.604,82.306 15.809 C 82.180 16.133,80.667 16.145,80.667 15.823 C 80.667 15.656,80.592 15.473,80.500 15.417 C 80.408 15.360,80.333 14.831,80.333 14.240 C 80.333 13.650,80.268 13.167,80.188 13.167 C 80.109 13.167,80.006 12.833,79.960 12.425 C 79.838 11.343,79.121 10.667,78.096 10.667 C 77.677 10.667,77.333 10.742,77.333 10.833 M131.667 10.812 C 131.667 10.892,131.292 11.007,130.833 11.068 C 130.375 11.128,130.000 11.251,130.000 11.339 C 130.000 11.428,129.887 11.500,129.750 11.500 C 129.612 11.500,129.500 11.570,129.500 11.655 C 129.500 11.741,129.369 11.853,129.208 11.905 C 128.948 11.989,128.313 12.560,127.586 13.363 C 127.447 13.517,127.333 13.723,127.333 13.821 C 127.333 13.920,127.258 14.000,127.167 14.000 C 127.075 14.000,127.000 13.700,127.000 13.333 C 127.000 12.967,126.925 12.667,126.833 12.667 C 126.742 12.667,126.667 12.491,126.667 12.276 C 126.667 12.060,126.510 11.704,126.319 11.484 C 125.667 10.733,123.167 11.001,123.167 11.821 C 123.167 11.920,123.092 12.000,123.000 12.000 C 122.777 12.000,122.781 14.455,123.005 14.529 C 123.113 14.566,123.215 16.312,123.282 19.300 C 123.340 21.892,123.450 24.052,123.527 24.100 C 123.604 24.147,123.667 24.819,123.667 25.593 C 123.667 26.420,123.735 27.000,123.833 27.000 C 123.925 27.000,124.000 27.340,124.000 27.755 C 124.000 29.462,124.622 30.074,126.249 29.970 C 127.362 29.899,127.833 29.614,127.833 29.012 C 127.833 28.822,127.908 28.667,128.000 28.667 C 128.092 28.667,128.167 28.446,128.167 28.177 C 128.167 27.907,128.092 27.640,128.000 27.583 C 127.908 27.527,127.833 27.110,127.833 26.657 C 127.833 26.204,127.758 25.833,127.667 25.833 C 127.564 25.833,127.500 25.028,127.500 23.750 C 127.500 22.472,127.564 21.667,127.667 21.667 C 127.758 21.667,127.833 21.478,127.833 21.248 C 127.833 21.017,127.904 20.699,127.991 20.539 C 128.078 20.380,128.193 19.969,128.248 19.625 C 128.303 19.281,128.420 19.000,128.508 19.000 C 128.595 19.000,128.667 18.850,128.667 18.667 C 128.667 18.483,128.736 18.333,128.820 18.333 C 128.904 18.333,129.023 18.108,129.083 17.833 C 129.144 17.558,129.262 17.333,129.347 17.333 C 129.431 17.333,129.500 17.223,129.500 17.088 C 129.500 16.598,131.517 14.833,132.077 14.833 C 132.218 14.833,132.333 14.753,132.333 14.655 C 132.333 14.547,132.430 14.563,132.578 14.696 C 132.712 14.818,132.937 15.013,133.078 15.132 C 133.218 15.250,133.333 15.564,133.333 15.830 C 133.333 16.096,133.408 16.360,133.500 16.417 C 133.597 16.476,133.667 17.391,133.667 18.593 C 133.667 19.734,133.730 20.667,133.808 20.667 C 133.886 20.667,134.003 21.660,134.067 22.875 C 134.131 24.090,134.255 25.155,134.342 25.242 C 134.429 25.329,134.500 25.685,134.500 26.033 C 134.500 26.382,134.566 26.667,134.647 26.667 C 134.727 26.667,134.826 27.121,134.866 27.676 C 134.926 28.498,135.020 28.760,135.379 29.092 C 136.279 29.926,138.667 29.482,138.667 28.480 C 138.667 28.318,138.742 28.140,138.833 28.083 C 138.925 28.027,139.000 27.835,139.000 27.657 C 139.000 27.479,138.925 27.333,138.833 27.333 C 138.740 27.333,138.667 26.870,138.667 26.278 C 138.667 25.697,138.610 25.167,138.542 25.099 C 138.355 24.915,137.981 22.296,137.890 20.542 C 137.846 19.694,137.752 19.000,137.681 19.000 C 137.609 19.000,137.506 18.052,137.451 16.892 C 137.396 15.733,137.272 14.706,137.176 14.609 C 137.079 14.512,137.000 14.223,137.000 13.967 C 137.000 13.710,136.925 13.500,136.833 13.500 C 136.742 13.500,136.667 13.394,136.667 13.264 C 136.667 12.548,135.123 11.000,134.408 11.000 C 134.195 11.000,133.973 10.925,133.917 10.833 C 133.790 10.629,131.667 10.609,131.667 10.812 M274.667 11.647 C 274.667 11.727,274.202 11.827,273.635 11.868 C 273.055 11.910,272.574 12.028,272.537 12.138 C 272.502 12.245,272.328 12.333,272.153 12.333 C 271.977 12.333,271.833 12.400,271.833 12.482 C 271.833 12.564,271.658 12.675,271.443 12.729 C 270.930 12.857,269.167 14.531,269.167 14.888 C 269.167 15.041,269.090 15.167,268.997 15.167 C 268.904 15.167,268.698 15.448,268.539 15.792 C 268.380 16.135,268.207 16.454,268.155 16.500 C 267.943 16.687,267.500 18.040,267.500 18.503 C 267.500 18.777,267.425 19.000,267.333 19.000 C 267.242 19.000,267.167 19.375,267.167 19.833 C 267.167 20.292,267.092 20.667,267.000 20.667 C 266.902 20.667,266.833 21.247,266.833 22.073 C 266.833 22.847,266.908 23.527,267.000 23.583 C 267.092 23.640,267.167 23.944,267.167 24.260 C 267.167 24.575,267.242 24.833,267.333 24.833 C 267.425 24.833,267.500 24.991,267.500 25.183 C 267.500 25.569,267.997 26.500,268.203 26.500 C 268.275 26.500,268.333 26.600,268.333 26.722 C 268.333 27.048,270.267 28.667,270.656 28.667 C 270.753 28.667,270.833 28.741,270.833 28.831 C 270.833 28.922,271.133 29.044,271.500 29.103 C 271.867 29.161,272.167 29.266,272.167 29.336 C 272.167 29.852,278.454 30.146,278.763 29.645 C 278.813 29.565,279.111 29.500,279.427 29.500 C 279.742 29.500,280.000 29.425,280.000 29.333 C 280.000 29.242,280.112 29.167,280.249 29.167 C 280.596 29.167,281.833 28.615,281.833 28.461 C 281.833 28.391,281.938 28.333,282.066 28.333 C 282.503 28.333,283.348 27.369,283.448 26.758 C 283.500 26.433,283.609 26.167,283.688 26.167 C 283.768 26.167,283.833 25.979,283.833 25.750 C 283.833 25.521,283.758 25.333,283.667 25.333 C 283.575 25.333,283.500 25.224,283.500 25.091 C 283.500 23.941,281.739 23.668,280.770 24.667 C 280.414 25.033,280.021 25.333,279.895 25.333 C 279.769 25.333,279.667 25.407,279.667 25.498 C 279.667 25.589,279.367 25.711,279.000 25.769 C 278.633 25.828,278.333 25.941,278.333 26.021 C 278.333 26.101,277.883 26.167,277.333 26.167 C 276.778 26.167,276.333 26.241,276.333 26.333 C 276.333 26.425,276.221 26.500,276.083 26.500 C 275.946 26.500,275.833 26.425,275.833 26.333 C 275.833 26.242,275.463 26.167,275.010 26.167 C 274.557 26.167,274.145 26.100,274.095 26.019 C 274.045 25.938,273.724 25.819,273.383 25.755 C 273.041 25.690,272.661 25.494,272.538 25.319 C 272.415 25.144,272.233 25.000,272.134 25.000 C 271.227 25.000,270.746 23.418,271.604 23.257 C 271.936 23.195,272.330 23.080,272.479 23.003 C 273.210 22.622,274.002 22.333,274.317 22.333 C 274.509 22.333,274.667 22.258,274.667 22.167 C 274.667 22.075,274.854 22.000,275.083 22.000 C 275.313 22.000,275.500 21.935,275.500 21.855 C 275.500 21.775,275.800 21.661,276.167 21.603 C 276.533 21.544,276.833 21.422,276.833 21.331 C 276.833 21.241,277.021 21.167,277.250 21.167 C 277.479 21.167,277.667 21.100,277.667 21.019 C 277.667 20.938,278.004 20.821,278.417 20.759 C 278.829 20.697,279.167 20.576,279.167 20.490 C 279.167 20.404,279.254 20.333,279.361 20.333 C 279.672 20.333,280.833 19.782,280.833 19.635 C 280.833 19.561,280.914 19.500,281.013 19.500 C 281.112 19.500,281.506 19.184,281.888 18.797 L 282.583 18.094 282.583 16.331 L 282.583 14.567 281.723 13.707 C 281.250 13.234,280.669 12.798,280.432 12.739 C 280.194 12.679,280.000 12.564,280.000 12.482 C 280.000 12.400,279.856 12.333,279.681 12.333 C 279.505 12.333,279.335 12.256,279.304 12.161 C 279.272 12.067,278.591 11.943,277.790 11.887 C 276.989 11.830,276.333 11.720,276.333 11.642 C 276.333 11.564,275.958 11.500,275.500 11.500 C 275.042 11.500,274.667 11.566,274.667 11.647 M298.917 12.167 C 298.860 12.258,298.631 12.333,298.407 12.333 C 298.183 12.333,298.000 12.403,298.000 12.487 C 298.000 12.572,297.325 12.694,296.500 12.759 C 295.675 12.824,295.000 12.942,295.000 13.021 C 295.000 13.101,294.662 13.167,294.250 13.167 C 293.837 13.167,293.500 13.231,293.500 13.310 C 293.500 13.389,293.097 13.495,292.604 13.546 C 291.738 13.635,291.178 13.855,290.703 14.292 C 290.578 14.406,290.406 14.500,290.320 14.500 C 290.050 14.500,289.167 15.440,289.167 15.726 C 289.167 15.877,289.092 16.000,289.000 16.000 C 288.908 16.000,288.833 16.106,288.833 16.236 C 288.833 16.366,288.740 16.503,288.625 16.542 C 288.474 16.592,288.417 17.157,288.417 18.603 L 288.417 20.594 289.083 21.262 C 289.794 21.974,290.743 22.500,291.317 22.500 C 291.509 22.500,291.667 22.575,291.667 22.667 C 291.667 22.758,291.854 22.833,292.083 22.833 C 292.313 22.833,292.500 22.901,292.500 22.984 C 292.500 23.067,292.875 23.187,293.333 23.250 C 293.792 23.313,294.167 23.433,294.167 23.516 C 294.167 23.599,294.354 23.667,294.583 23.667 C 294.813 23.667,295.000 23.734,295.000 23.815 C 295.000 23.897,295.194 24.013,295.431 24.072 C 297.203 24.517,297.776 27.120,296.173 27.440 C 295.891 27.497,295.619 27.608,295.570 27.688 C 295.452 27.879,292.667 27.877,292.667 27.686 C 292.667 27.605,292.254 27.487,291.750 27.424 C 291.246 27.361,290.833 27.240,290.833 27.155 C 290.833 27.070,290.718 27.000,290.577 27.000 C 290.435 27.000,290.025 26.690,289.665 26.312 C 288.997 25.610,287.397 25.393,287.201 25.979 C 287.167 26.082,287.033 26.167,286.903 26.167 C 286.773 26.167,286.667 26.279,286.667 26.417 C 286.667 26.554,286.592 26.667,286.500 26.667 C 286.407 26.667,286.333 27.111,286.333 27.667 C 286.333 28.222,286.407 28.667,286.500 28.667 C 286.592 28.667,286.667 28.765,286.667 28.885 C 286.667 29.155,287.527 30.000,287.801 30.000 C 287.910 30.000,288.000 30.057,288.000 30.127 C 288.000 30.258,289.213 30.833,289.487 30.833 C 289.571 30.833,289.664 30.908,289.694 30.998 C 289.725 31.089,290.219 31.212,290.792 31.272 C 291.365 31.332,291.833 31.445,291.833 31.524 C 291.833 31.602,292.846 31.667,294.083 31.667 C 295.321 31.667,296.333 31.602,296.333 31.523 C 296.333 31.444,296.727 31.333,297.207 31.276 C 297.688 31.219,298.107 31.096,298.138 31.003 C 298.169 30.910,298.319 30.833,298.472 30.832 C 298.784 30.831,300.167 29.494,300.167 29.194 C 300.167 29.087,300.242 29.000,300.333 29.000 C 300.425 29.000,300.500 28.856,300.500 28.681 C 300.500 28.505,300.587 28.332,300.694 28.296 C 301.138 28.148,300.965 24.680,300.462 23.667 C 300.025 22.784,298.547 21.167,298.179 21.167 C 298.080 21.167,298.000 21.093,298.000 21.003 C 298.000 20.913,297.813 20.793,297.583 20.735 C 297.354 20.678,297.167 20.565,297.167 20.484 C 297.167 20.403,296.867 20.289,296.500 20.231 C 296.133 20.172,295.833 20.059,295.833 19.979 C 295.833 19.899,295.683 19.833,295.500 19.833 C 295.317 19.833,295.167 19.764,295.167 19.679 C 295.167 19.594,294.754 19.472,294.250 19.409 C 293.746 19.346,293.333 19.229,293.333 19.147 C 293.333 19.066,293.155 19.000,292.937 19.000 C 291.891 19.000,292.411 17.696,293.573 17.404 C 293.810 17.345,294.044 17.230,294.095 17.148 C 294.145 17.067,294.369 17.000,294.593 17.000 C 294.817 17.000,295.000 16.933,295.000 16.851 C 295.000 16.769,295.600 16.648,296.333 16.583 C 297.067 16.518,297.667 16.398,297.667 16.316 C 297.667 16.234,297.854 16.167,298.083 16.167 C 298.458 16.167,298.500 16.233,298.500 16.833 C 298.500 17.200,298.575 17.500,298.667 17.500 C 298.758 17.500,298.833 17.612,298.833 17.750 C 298.833 18.302,299.464 18.667,300.417 18.667 C 300.921 18.667,301.333 18.592,301.333 18.500 C 301.333 18.408,301.446 18.333,301.583 18.333 C 301.721 18.333,301.833 18.221,301.833 18.083 C 301.833 17.946,301.908 17.833,302.000 17.833 C 302.103 17.833,302.167 16.914,302.167 15.407 L 302.167 12.981 301.630 12.491 C 301.069 11.979,299.173 11.752,298.917 12.167 M114.000 13.000 C 114.000 13.092,113.845 13.167,113.655 13.167 C 113.286 13.167,112.833 13.527,112.833 13.821 C 112.833 13.920,112.758 14.000,112.667 14.000 C 112.567 14.000,112.500 14.663,112.500 15.657 C 112.500 16.582,112.574 17.359,112.667 17.417 C 112.767 17.479,112.833 18.641,112.833 20.343 C 112.833 21.896,112.898 23.167,112.978 23.167 C 113.057 23.167,113.177 24.417,113.244 25.945 C 113.361 28.616,113.439 29.006,113.995 29.696 C 114.366 30.155,116.312 30.133,116.713 29.665 C 117.043 29.279,117.152 24.912,116.834 24.806 C 116.732 24.771,116.625 22.898,116.557 19.958 C 116.496 17.323,116.383 15.167,116.307 15.167 C 116.230 15.167,116.167 14.867,116.167 14.500 C 116.167 13.801,115.730 13.167,115.250 13.167 C 115.112 13.167,115.000 13.092,115.000 13.000 C 115.000 12.908,114.775 12.833,114.500 12.833 C 114.225 12.833,114.000 12.908,114.000 13.000 M218.833 13.000 C 218.833 13.092,218.940 13.167,219.070 13.167 C 219.511 13.167,220.342 13.748,220.439 14.125 C 220.493 14.331,220.603 14.500,220.685 14.500 C 220.766 14.500,220.833 14.644,220.833 14.819 C 220.833 14.995,220.927 15.170,221.042 15.208 C 221.340 15.308,221.340 20.192,221.042 20.292 C 220.927 20.330,220.833 20.542,220.833 20.764 C 220.833 20.985,220.763 21.167,220.678 21.167 C 220.592 21.167,220.469 21.335,220.404 21.542 C 220.290 21.904,219.731 22.500,219.506 22.500 C 219.446 22.500,219.219 22.665,219.002 22.868 C 218.537 23.301,216.010 23.441,215.876 23.042 C 215.837 22.927,215.717 22.833,215.609 22.833 C 215.321 22.833,214.500 22.026,214.500 21.743 C 214.500 21.609,214.443 21.500,214.374 21.500 C 213.828 21.500,213.443 16.880,213.974 16.703 C 214.080 16.668,214.167 16.458,214.167 16.236 C 214.167 16.015,214.234 15.833,214.315 15.833 C 214.397 15.833,214.511 15.644,214.570 15.412 C 214.760 14.653,216.475 13.167,217.161 13.167 C 217.347 13.167,217.500 13.092,217.500 13.000 C 217.500 12.908,217.800 12.833,218.167 12.833 C 218.533 12.833,218.833 12.908,218.833 13.000 M96.625 14.445 C 96.373 14.487,96.167 14.592,96.167 14.678 C 96.167 14.763,96.054 14.833,95.917 14.833 C 95.779 14.833,95.667 14.905,95.667 14.992 C 95.667 15.080,95.407 15.200,95.089 15.260 C 94.738 15.326,94.473 15.489,94.414 15.676 C 94.360 15.845,94.174 16.028,94.000 16.083 C 93.826 16.139,93.639 16.326,93.583 16.500 C 93.528 16.674,93.337 16.863,93.159 16.919 C 92.980 16.976,92.788 17.205,92.732 17.428 C 92.676 17.651,92.564 17.833,92.482 17.833 C 92.400 17.833,92.333 17.983,92.333 18.167 C 92.333 18.350,92.264 18.500,92.180 18.500 C 92.096 18.500,91.977 18.725,91.917 19.000 C 91.856 19.275,91.738 19.500,91.653 19.500 C 91.569 19.500,91.500 19.681,91.500 19.903 C 91.500 20.124,91.406 20.337,91.292 20.375 C 91.134 20.427,91.083 21.246,91.083 23.714 C 91.083 26.107,91.139 27.039,91.292 27.192 C 91.406 27.306,91.500 27.572,91.500 27.783 C 91.500 27.994,91.569 28.167,91.653 28.167 C 91.738 28.167,91.853 28.377,91.910 28.634 C 91.966 28.891,92.160 29.208,92.339 29.338 C 92.519 29.467,92.667 29.655,92.667 29.756 C 92.667 29.997,93.547 30.833,93.801 30.833 C 93.910 30.833,94.000 30.903,94.000 30.989 C 94.000 31.074,94.169 31.197,94.375 31.261 C 94.581 31.326,94.787 31.424,94.833 31.481 C 95.092 31.799,95.858 32.054,96.783 32.128 C 97.361 32.174,97.833 32.277,97.833 32.356 C 97.833 32.435,98.471 32.500,99.250 32.500 C 100.029 32.500,100.667 32.436,100.667 32.358 C 100.667 32.280,101.248 32.167,101.958 32.107 C 102.669 32.047,103.275 31.923,103.306 31.832 C 103.336 31.741,103.505 31.667,103.681 31.667 C 103.856 31.667,104.000 31.592,104.000 31.500 C 104.000 31.408,104.190 31.333,104.422 31.333 C 104.654 31.333,104.884 31.228,104.933 31.100 C 104.983 30.971,105.264 30.821,105.559 30.766 C 105.853 30.710,106.202 30.516,106.334 30.333 C 106.466 30.150,106.657 30.000,106.759 30.000 C 106.974 30.000,107.833 29.078,107.833 28.849 C 107.833 28.764,107.906 28.669,107.994 28.639 C 108.577 28.438,108.289 25.878,107.665 25.714 C 107.482 25.667,107.333 25.562,107.333 25.481 C 107.333 25.262,106.300 25.302,105.785 25.542 C 105.538 25.656,105.335 25.844,105.335 25.958 C 105.334 26.073,105.263 26.167,105.178 26.167 C 105.092 26.167,104.970 26.332,104.906 26.534 C 104.758 26.999,104.499 27.258,104.034 27.406 C 103.832 27.470,103.667 27.592,103.667 27.678 C 103.667 27.763,103.479 27.833,103.250 27.833 C 103.021 27.833,102.833 27.907,102.833 27.998 C 102.833 28.089,102.533 28.211,102.167 28.269 C 101.800 28.328,101.500 28.441,101.500 28.521 C 101.500 28.601,101.200 28.667,100.833 28.667 C 100.467 28.667,100.167 28.742,100.167 28.833 C 100.167 28.925,99.904 29.000,99.583 29.000 C 99.263 29.000,99.000 28.925,99.000 28.833 C 99.000 28.742,98.662 28.667,98.250 28.667 C 97.837 28.667,97.500 28.598,97.500 28.513 C 97.500 28.429,97.275 28.310,97.000 28.250 C 96.725 28.190,96.500 28.071,96.500 27.987 C 96.500 27.902,96.388 27.833,96.250 27.833 C 95.518 27.833,95.086 26.765,95.750 26.598 C 95.979 26.541,96.167 26.420,96.167 26.330 C 96.167 26.240,96.279 26.167,96.417 26.167 C 96.554 26.167,96.667 26.101,96.667 26.021 C 96.667 25.941,96.873 25.833,97.125 25.782 C 97.377 25.731,97.739 25.544,97.929 25.365 C 98.120 25.187,98.457 24.983,98.679 24.913 C 98.902 24.843,99.205 24.646,99.353 24.476 C 99.501 24.306,99.677 24.167,99.744 24.167 C 99.958 24.167,101.075 23.604,101.304 23.381 C 101.425 23.263,101.631 23.167,101.762 23.167 C 101.893 23.167,102.000 23.092,102.000 23.000 C 102.000 22.908,102.112 22.833,102.250 22.833 C 102.388 22.833,102.500 22.763,102.500 22.678 C 102.500 22.592,102.669 22.469,102.875 22.404 C 103.081 22.339,103.371 22.146,103.520 21.976 C 103.668 21.806,103.855 21.664,103.936 21.661 C 104.203 21.651,104.788 21.071,104.906 20.699 C 104.970 20.498,105.092 20.333,105.178 20.333 C 105.263 20.333,105.333 20.221,105.333 20.083 C 105.333 19.946,105.408 19.833,105.500 19.833 C 105.599 19.833,105.667 19.222,105.667 18.333 C 105.667 17.444,105.599 16.833,105.500 16.833 C 105.408 16.833,105.333 16.720,105.333 16.580 C 105.333 16.265,104.222 15.167,103.902 15.167 C 103.773 15.167,103.667 15.092,103.667 15.000 C 103.667 14.908,103.560 14.833,103.431 14.833 C 103.301 14.833,103.163 14.740,103.125 14.625 C 103.055 14.415,97.685 14.266,96.625 14.445 M277.500 15.500 C 277.500 15.592,277.574 15.667,277.666 15.667 C 278.782 15.667,279.564 16.722,278.583 16.906 C 278.262 16.966,278.000 17.087,278.000 17.174 C 278.000 17.262,277.887 17.333,277.750 17.333 C 277.612 17.333,277.500 17.408,277.500 17.500 C 277.500 17.592,277.343 17.667,277.150 17.667 C 276.835 17.667,276.043 17.955,275.312 18.336 C 275.163 18.414,274.769 18.528,274.437 18.590 C 274.105 18.653,273.833 18.770,273.833 18.852 C 273.833 18.933,273.646 19.000,273.417 19.000 C 273.188 19.000,273.000 19.068,273.000 19.151 C 273.000 19.234,272.625 19.354,272.167 19.417 C 271.708 19.480,271.333 19.599,271.333 19.682 C 271.333 19.765,271.223 19.833,271.087 19.833 C 270.821 19.833,270.916 18.804,271.193 18.694 C 271.270 18.664,271.333 18.533,271.333 18.403 C 271.333 18.273,271.403 18.167,271.489 18.167 C 271.574 18.167,271.695 18.007,271.757 17.811 C 271.933 17.258,273.583 15.667,273.982 15.667 C 274.175 15.667,274.333 15.592,274.333 15.500 C 274.333 15.401,274.972 15.333,275.917 15.333 C 276.861 15.333,277.500 15.401,277.500 15.500 M64.833 16.667 C 64.833 16.758,64.651 16.833,64.429 16.833 C 64.206 16.833,63.911 16.946,63.774 17.083 C 63.636 17.221,63.443 17.333,63.345 17.333 C 63.247 17.333,63.167 17.407,63.167 17.498 C 63.167 17.589,62.867 17.711,62.500 17.769 C 62.133 17.828,61.833 17.941,61.833 18.021 C 61.833 18.101,61.683 18.167,61.500 18.167 C 61.317 18.167,61.167 18.234,61.167 18.315 C 61.167 18.397,60.960 18.514,60.708 18.575 C 60.076 18.727,59.333 19.059,59.333 19.189 C 59.333 19.248,59.071 19.345,58.750 19.406 C 58.429 19.466,58.167 19.587,58.167 19.674 C 58.167 19.762,58.054 19.833,57.917 19.833 C 57.779 19.833,57.667 19.903,57.667 19.989 C 57.667 20.074,57.507 20.195,57.312 20.257 C 56.902 20.387,56.000 21.151,56.000 21.368 C 56.000 21.448,55.853 21.672,55.673 21.865 C 55.113 22.466,54.931 26.783,55.458 26.958 C 55.573 26.997,55.667 27.096,55.667 27.179 C 55.667 27.493,56.397 28.154,56.856 28.255 C 57.119 28.313,57.333 28.429,57.333 28.513 C 57.333 28.598,57.591 28.667,57.907 28.667 C 58.222 28.667,58.519 28.730,58.567 28.807 C 58.615 28.884,59.725 28.996,61.035 29.056 C 62.386 29.117,63.440 29.237,63.472 29.332 C 63.503 29.424,63.709 29.500,63.931 29.500 C 64.152 29.500,64.333 29.574,64.333 29.663 C 64.333 29.753,64.521 29.874,64.751 29.932 C 65.005 29.996,65.209 30.194,65.270 30.435 C 65.324 30.654,65.436 30.833,65.518 30.833 C 66.188 30.833,65.476 32.235,64.583 32.672 C 64.308 32.806,64.042 32.972,63.991 33.041 C 63.940 33.109,63.433 33.214,62.866 33.273 C 62.298 33.332,61.833 33.445,61.833 33.524 C 61.833 33.717,60.401 33.706,60.039 33.509 C 59.880 33.422,59.469 33.307,59.125 33.252 C 58.781 33.197,58.500 33.080,58.500 32.992 C 58.500 32.905,58.350 32.833,58.167 32.833 C 57.983 32.833,57.833 32.758,57.833 32.667 C 57.833 32.219,56.415 32.505,55.875 33.061 C 55.340 33.612,55.035 35.500,55.481 35.500 C 55.562 35.500,55.668 35.656,55.718 35.846 C 55.768 36.036,55.964 36.232,56.154 36.282 C 56.344 36.332,56.500 36.438,56.500 36.519 C 56.500 36.600,56.606 36.667,56.736 36.667 C 56.866 36.667,56.998 36.743,57.029 36.836 C 57.060 36.929,57.591 37.052,58.209 37.110 C 58.827 37.168,59.333 37.279,59.333 37.357 C 59.333 37.436,60.046 37.500,60.917 37.500 C 61.788 37.500,62.500 37.436,62.500 37.358 C 62.500 37.279,63.018 37.172,63.651 37.118 C 64.285 37.065,64.941 36.948,65.110 36.858 C 65.576 36.610,66.620 36.167,66.739 36.167 C 66.911 36.167,68.389 34.802,68.750 34.310 C 69.287 33.578,69.416 33.049,69.410 31.600 C 69.403 30.213,69.125 29.000,68.813 29.000 C 68.756 29.000,68.666 28.794,68.615 28.542 C 68.509 28.022,67.354 26.748,66.840 26.585 C 66.653 26.526,66.500 26.408,66.500 26.322 C 66.500 26.237,66.356 26.167,66.181 26.167 C 66.005 26.167,65.836 26.090,65.805 25.997 C 65.773 25.904,65.355 25.781,64.874 25.724 C 64.393 25.667,64.000 25.556,64.000 25.477 C 64.000 25.398,63.550 25.333,63.000 25.333 C 62.444 25.333,62.000 25.259,62.000 25.167 C 62.000 25.067,61.311 24.995,60.292 24.987 C 59.352 24.980,58.677 24.936,58.792 24.890 C 58.906 24.843,59.000 24.701,59.000 24.574 C 59.000 24.028,61.131 22.333,61.817 22.333 C 61.918 22.333,62.000 22.258,62.000 22.167 C 62.000 22.075,62.150 22.000,62.333 22.000 C 62.517 22.000,62.667 21.931,62.667 21.847 C 62.667 21.762,62.892 21.644,63.167 21.583 C 63.442 21.523,63.667 21.404,63.667 21.320 C 63.667 21.097,64.399 21.132,64.633 21.367 C 64.743 21.477,64.835 21.683,64.836 21.825 C 64.842 22.455,65.759 23.167,66.564 23.167 C 66.987 23.167,67.333 23.092,67.333 23.000 C 67.333 22.908,67.414 22.833,67.512 22.833 C 67.806 22.833,68.167 22.381,68.167 22.012 C 68.167 21.822,68.242 21.667,68.333 21.667 C 68.425 21.667,68.500 21.442,68.500 21.167 C 68.500 20.892,68.425 20.667,68.333 20.667 C 68.242 20.667,68.167 20.404,68.167 20.083 C 68.167 19.762,68.099 19.500,68.016 19.500 C 67.934 19.500,67.814 19.052,67.750 18.504 C 67.588 17.102,66.977 16.500,65.718 16.500 C 65.232 16.500,64.833 16.575,64.833 16.667 M25.133 16.937 C 24.977 16.983,24.804 17.163,24.749 17.336 C 24.694 17.508,24.503 17.696,24.325 17.753 C 23.727 17.942,23.857 20.038,24.506 20.672 C 25.013 21.168,27.333 21.452,27.333 21.018 C 27.333 20.936,27.521 20.822,27.750 20.765 C 28.019 20.697,28.167 20.543,28.167 20.330 C 28.167 20.149,28.242 20.000,28.333 20.000 C 28.714 20.000,28.521 18.078,28.103 17.715 C 27.885 17.526,27.677 17.280,27.640 17.169 C 27.570 16.959,25.654 16.782,25.133 16.937 M325.000 17.167 C 325.000 17.258,324.737 17.333,324.417 17.333 C 324.096 17.333,323.833 17.400,323.833 17.481 C 323.833 17.562,323.480 17.682,323.048 17.747 C 322.616 17.811,322.147 17.997,322.006 18.158 C 321.865 18.320,321.581 18.506,321.375 18.571 C 321.169 18.636,321.000 18.759,321.000 18.845 C 321.000 18.930,320.919 19.000,320.821 19.000 C 320.628 19.000,319.667 19.902,319.667 20.082 C 319.667 20.142,319.573 20.295,319.458 20.423 C 318.964 20.974,318.833 21.163,318.833 21.326 C 318.833 21.422,318.762 21.500,318.674 21.500 C 318.587 21.500,318.466 21.762,318.406 22.083 C 318.345 22.404,318.230 22.667,318.148 22.667 C 318.067 22.667,318.000 22.802,318.000 22.967 C 318.000 23.132,317.906 23.360,317.792 23.475 C 317.640 23.626,317.583 24.515,317.583 26.732 C 317.583 29.820,317.665 30.307,318.292 30.970 C 318.406 31.091,318.500 31.263,318.500 31.351 C 318.500 31.599,320.000 33.000,320.265 33.000 C 320.394 33.000,320.500 33.075,320.500 33.167 C 320.500 33.258,320.612 33.333,320.750 33.333 C 320.887 33.333,321.000 33.406,321.000 33.494 C 321.000 33.583,321.375 33.705,321.833 33.766 C 322.292 33.827,322.667 33.942,322.667 34.021 C 322.667 34.101,323.229 34.167,323.917 34.167 C 324.604 34.167,325.167 34.101,325.167 34.021 C 325.167 33.941,325.467 33.828,325.833 33.769 C 326.200 33.711,326.500 33.589,326.500 33.498 C 326.500 33.407,326.616 33.333,326.757 33.333 C 326.898 33.333,327.310 33.021,327.673 32.640 C 328.325 31.954,328.333 31.951,328.333 32.390 C 328.333 32.634,328.258 32.833,328.167 32.833 C 328.075 32.833,328.000 33.133,328.000 33.500 C 328.000 33.867,327.932 34.167,327.849 34.167 C 327.766 34.167,327.646 34.542,327.583 35.000 C 327.520 35.458,327.401 35.833,327.318 35.833 C 327.235 35.833,327.167 36.021,327.167 36.250 C 327.167 36.479,327.097 36.667,327.011 36.667 C 326.926 36.667,326.803 36.835,326.737 37.042 C 326.672 37.248,326.490 37.529,326.333 37.667 C 326.176 37.804,325.994 38.085,325.929 38.291 C 325.864 38.497,325.629 38.712,325.406 38.768 C 325.183 38.824,325.000 38.936,325.000 39.018 C 325.000 39.100,324.856 39.167,324.681 39.167 C 324.505 39.167,324.331 39.256,324.295 39.365 C 324.210 39.619,321.115 39.596,321.030 39.341 C 320.998 39.245,320.768 39.167,320.519 39.167 C 320.270 39.167,319.990 39.090,319.896 38.996 C 319.801 38.901,319.336 38.779,318.862 38.722 C 318.388 38.666,318.000 38.556,318.000 38.477 C 318.000 38.398,317.700 38.333,317.333 38.333 C 316.967 38.333,316.667 38.408,316.667 38.500 C 316.667 38.592,316.525 38.667,316.353 38.667 C 315.775 38.667,315.586 40.882,316.125 41.341 C 316.591 41.739,317.597 42.167,318.067 42.167 C 318.305 42.167,318.500 42.242,318.500 42.333 C 318.500 42.425,318.831 42.500,319.236 42.500 C 319.641 42.500,319.999 42.580,320.031 42.677 C 320.115 42.928,325.549 42.935,325.633 42.685 C 325.667 42.583,325.876 42.500,326.097 42.500 C 326.319 42.500,326.500 42.434,326.500 42.354 C 326.500 42.274,326.723 42.164,326.995 42.109 C 327.525 42.003,329.333 40.316,329.333 39.927 C 329.333 39.804,329.446 39.659,329.583 39.606 C 329.721 39.554,329.833 39.358,329.833 39.172 C 329.833 38.986,329.908 38.833,330.000 38.833 C 330.092 38.833,330.167 38.646,330.167 38.417 C 330.167 38.188,330.235 38.000,330.318 38.000 C 330.401 38.000,330.520 37.625,330.583 37.167 C 330.646 36.708,330.766 36.333,330.849 36.333 C 330.932 36.333,331.000 36.108,331.000 35.833 C 331.000 35.558,331.066 35.333,331.147 35.333 C 331.228 35.333,331.347 34.696,331.412 33.917 C 331.477 33.137,331.598 32.500,331.682 32.500 C 331.765 32.500,331.833 32.204,331.833 31.843 C 331.833 31.482,331.903 31.143,331.989 31.090 C 332.074 31.037,332.196 30.395,332.260 29.664 C 332.324 28.932,332.442 28.333,332.522 28.333 C 332.601 28.333,332.667 28.033,332.667 27.667 C 332.667 27.300,332.733 27.000,332.814 27.000 C 332.895 27.000,333.013 26.512,333.077 25.917 C 333.141 25.321,333.262 24.833,333.347 24.833 C 333.431 24.833,333.500 24.577,333.500 24.264 C 333.500 23.951,333.582 23.667,333.683 23.633 C 333.798 23.595,333.876 22.923,333.891 21.818 C 333.919 19.868,333.797 19.584,332.843 19.394 C 332.521 19.329,332.333 19.190,332.333 19.016 C 332.333 18.728,331.782 18.167,331.498 18.167 C 331.407 18.167,331.333 18.096,331.333 18.010 C 331.333 17.924,330.996 17.803,330.583 17.741 C 330.171 17.679,329.833 17.562,329.833 17.481 C 329.833 17.400,329.533 17.333,329.167 17.333 C 328.800 17.333,328.500 17.258,328.500 17.167 C 328.500 17.066,327.806 17.000,326.750 17.000 C 325.694 17.000,325.000 17.066,325.000 17.167 M11.625 17.779 C 11.006 17.817,10.500 17.920,10.500 18.008 C 10.500 18.095,10.125 18.167,9.667 18.167 C 9.208 18.167,8.833 18.232,8.833 18.312 C 8.833 18.392,8.383 18.508,7.833 18.570 C 7.283 18.632,6.833 18.754,6.833 18.842 C 6.833 18.929,6.646 19.000,6.417 19.000 C 6.188 19.000,6.000 19.065,6.000 19.145 C 6.000 19.225,5.700 19.339,5.333 19.397 C 4.967 19.456,4.667 19.578,4.667 19.669 C 4.667 19.759,4.485 19.833,4.264 19.833 C 4.042 19.833,3.832 19.922,3.795 20.030 C 3.754 20.156,3.171 20.254,2.198 20.301 C 1.356 20.341,0.667 20.431,0.667 20.501 C 0.667 20.571,0.507 20.670,0.312 20.721 C -0.091 20.826,-0.110 24.560,0.292 24.808 C 0.394 24.871,0.530 25.315,0.594 25.795 C 0.658 26.274,0.775 26.667,0.855 26.667 C 0.935 26.667,1.000 27.042,1.000 27.500 C 1.000 27.958,1.067 28.333,1.149 28.333 C 1.230 28.333,1.351 29.083,1.417 30.000 C 1.482 30.917,1.603 31.667,1.685 31.667 C 1.766 31.667,1.833 32.310,1.833 33.095 C 1.833 34.143,1.900 34.590,2.083 34.774 C 2.254 34.944,2.333 35.365,2.333 36.095 C 2.333 36.698,2.406 37.167,2.500 37.167 C 2.592 37.167,2.667 37.542,2.667 38.000 C 2.667 38.458,2.731 38.833,2.809 38.833 C 2.888 38.833,3.003 39.452,3.066 40.208 C 3.129 40.965,3.252 41.608,3.340 41.639 C 3.428 41.669,3.500 41.876,3.500 42.097 C 3.500 42.319,3.565 42.500,3.645 42.500 C 3.725 42.500,3.839 42.803,3.898 43.174 C 4.007 43.855,4.243 44.382,4.625 44.797 C 4.740 44.922,4.833 45.094,4.833 45.180 C 4.833 45.266,5.065 45.579,5.349 45.876 L 5.864 46.415 8.362 46.476 C 10.885 46.538,14.596 46.250,14.762 45.980 C 14.812 45.899,15.149 45.833,15.510 45.833 C 15.871 45.833,16.167 45.767,16.167 45.686 C 16.167 45.605,16.653 45.487,17.248 45.423 C 17.843 45.359,18.373 45.238,18.425 45.154 C 18.477 45.069,18.703 45.000,18.927 45.000 C 19.150 45.000,19.333 44.925,19.333 44.833 C 19.333 44.742,19.494 44.667,19.690 44.667 C 20.363 44.667,21.000 43.775,21.000 42.835 C 21.000 42.376,20.934 42.000,20.853 42.000 C 20.772 42.000,20.665 41.844,20.615 41.654 C 20.565 41.464,20.369 41.268,20.179 41.218 C 19.989 41.168,19.833 41.062,19.833 40.981 C 19.833 40.900,19.533 40.833,19.167 40.833 C 18.800 40.833,18.500 40.899,18.500 40.978 C 18.500 41.058,18.146 41.163,17.714 41.212 C 17.281 41.261,16.900 41.383,16.867 41.484 C 16.833 41.584,16.512 41.667,16.153 41.667 C 15.794 41.667,15.500 41.733,15.500 41.814 C 15.500 41.894,14.862 42.014,14.083 42.079 C 13.304 42.143,12.667 42.265,12.667 42.348 C 12.667 42.432,12.367 42.500,12.000 42.500 C 11.633 42.500,11.333 42.565,11.333 42.645 C 11.333 42.825,8.515 43.059,8.130 42.911 C 7.954 42.844,7.808 42.530,7.739 42.069 C 7.678 41.664,7.562 41.333,7.481 41.333 C 7.400 41.333,7.333 41.115,7.333 40.847 C 7.333 40.580,7.261 40.336,7.173 40.306 C 7.085 40.275,6.962 39.631,6.899 38.875 C 6.837 38.119,6.721 37.500,6.643 37.500 C 6.564 37.500,6.500 36.938,6.500 36.250 C 6.500 35.028,6.509 35.000,6.917 35.000 C 7.146 35.000,7.333 34.935,7.333 34.855 C 7.333 34.775,7.783 34.659,8.333 34.597 C 8.883 34.534,9.333 34.412,9.333 34.325 C 9.333 34.238,9.521 34.167,9.750 34.167 C 9.979 34.167,10.167 34.100,10.167 34.019 C 10.167 33.938,10.579 33.820,11.083 33.757 C 11.588 33.694,12.000 33.573,12.000 33.488 C 12.000 33.403,12.188 33.333,12.417 33.333 C 12.646 33.333,12.833 33.268,12.833 33.188 C 12.833 33.108,13.283 32.992,13.833 32.930 C 14.383 32.868,14.833 32.746,14.833 32.658 C 14.833 32.571,15.096 32.500,15.417 32.500 C 15.737 32.500,16.000 32.432,16.000 32.349 C 16.000 32.266,16.375 32.146,16.833 32.083 C 17.292 32.020,17.667 31.901,17.667 31.818 C 17.667 31.735,17.741 31.667,17.831 31.667 C 18.753 31.667,19.040 29.388,18.221 28.569 C 17.745 28.093,15.020 28.024,14.867 28.484 C 14.833 28.584,14.587 28.667,14.319 28.667 C 14.052 28.667,13.833 28.735,13.833 28.818 C 13.833 28.901,13.458 29.020,13.000 29.083 C 12.542 29.146,12.167 29.266,12.167 29.349 C 12.167 29.432,11.904 29.500,11.583 29.500 C 11.262 29.500,11.000 29.568,11.000 29.651 C 11.000 29.734,10.625 29.854,10.167 29.917 C 9.708 29.980,9.333 30.099,9.333 30.182 C 9.333 30.265,9.071 30.333,8.750 30.333 C 8.429 30.333,8.167 30.401,8.167 30.484 C 8.167 30.567,7.792 30.687,7.333 30.750 C 6.875 30.813,6.500 30.933,6.500 31.016 C 6.500 31.099,6.313 31.167,6.083 31.167 C 5.750 31.167,5.667 31.083,5.667 30.750 C 5.667 30.521,5.601 30.333,5.521 30.333 C 5.442 30.333,5.323 29.508,5.257 28.500 C 5.192 27.492,5.070 26.667,4.986 26.667 C 4.902 26.667,4.833 26.344,4.833 25.950 C 4.833 25.556,4.768 25.162,4.688 25.075 C 4.263 24.612,4.330 24.029,4.834 23.806 C 5.108 23.685,5.333 23.537,5.333 23.478 C 5.333 23.419,5.671 23.321,6.083 23.259 C 6.496 23.197,6.833 23.076,6.833 22.990 C 6.833 22.904,7.021 22.833,7.250 22.833 C 7.479 22.833,7.667 22.766,7.667 22.683 C 7.667 22.600,8.117 22.480,8.667 22.417 C 9.217 22.353,9.709 22.233,9.760 22.150 C 9.811 22.068,10.149 22.000,10.510 22.000 C 10.871 22.000,11.167 21.930,11.167 21.844 C 11.167 21.755,12.445 21.665,14.153 21.636 C 17.747 21.573,17.833 21.528,17.833 19.738 C 17.833 18.488,17.730 18.167,17.329 18.167 C 17.164 18.167,17.002 18.088,16.969 17.992 C 16.905 17.799,13.486 17.663,11.625 17.779 M101.167 18.000 C 101.167 18.092,101.311 18.167,101.486 18.167 C 102.414 18.167,102.075 19.075,101.024 19.409 C 100.827 19.471,100.667 19.592,100.667 19.678 C 100.667 19.763,100.554 19.833,100.417 19.833 C 100.279 19.833,100.167 19.903,100.167 19.989 C 100.167 20.074,100.001 20.197,99.799 20.261 C 99.597 20.325,99.330 20.480,99.204 20.605 C 99.079 20.731,98.869 20.833,98.738 20.833 C 98.607 20.833,98.500 20.908,98.500 21.000 C 98.500 21.092,98.350 21.167,98.167 21.167 C 97.983 21.167,97.833 21.233,97.833 21.314 C 97.833 21.395,97.702 21.505,97.542 21.559 C 97.225 21.665,96.634 22.021,96.500 22.186 C 96.454 22.242,96.248 22.341,96.042 22.405 C 95.835 22.470,95.667 22.592,95.667 22.678 C 95.667 22.763,95.554 22.833,95.417 22.833 C 95.279 22.833,95.167 22.908,95.167 23.000 C 95.167 23.092,95.017 23.167,94.833 23.167 C 94.468 23.167,94.384 22.708,94.658 22.206 C 94.744 22.047,94.860 21.635,94.915 21.292 C 94.970 20.948,95.087 20.667,95.174 20.667 C 95.262 20.667,95.333 20.525,95.333 20.351 C 95.333 20.178,95.446 19.992,95.583 19.940 C 95.721 19.887,95.833 19.696,95.833 19.516 C 95.833 19.336,95.982 19.142,96.167 19.083 C 96.350 19.025,96.500 18.908,96.500 18.822 C 96.500 18.737,96.580 18.667,96.679 18.667 C 96.777 18.667,96.970 18.554,97.107 18.417 C 97.245 18.279,97.539 18.167,97.762 18.167 C 97.985 18.167,98.167 18.092,98.167 18.000 C 98.167 17.901,98.778 17.833,99.667 17.833 C 100.556 17.833,101.167 17.901,101.167 18.000 M343.833 19.667 C 343.833 19.758,343.571 19.833,343.250 19.833 C 342.929 19.833,342.667 19.902,342.667 19.987 C 342.667 20.071,342.442 20.190,342.167 20.250 C 341.892 20.310,341.667 20.429,341.667 20.513 C 341.667 20.598,341.514 20.667,341.328 20.667 C 341.142 20.667,340.946 20.779,340.894 20.917 C 340.841 21.054,340.692 21.167,340.562 21.167 C 340.266 21.167,338.000 23.475,338.000 23.777 C 338.000 23.900,337.931 24.000,337.847 24.000 C 337.762 24.000,337.644 24.225,337.583 24.500 C 337.523 24.775,337.404 25.000,337.320 25.000 C 337.236 25.000,337.167 25.144,337.167 25.319 C 337.167 25.495,337.089 25.665,336.995 25.696 C 336.900 25.728,336.776 26.409,336.720 27.210 C 336.663 28.011,336.553 28.667,336.475 28.667 C 336.397 28.667,336.333 29.229,336.333 29.917 C 336.333 30.604,336.397 31.167,336.476 31.167 C 336.554 31.167,336.664 31.709,336.719 32.373 C 336.775 33.036,336.898 33.605,336.994 33.637 C 337.089 33.668,337.167 33.801,337.167 33.931 C 337.167 34.060,337.242 34.167,337.333 34.167 C 337.425 34.167,337.500 34.272,337.500 34.401 C 337.500 34.799,338.958 36.167,339.497 36.274 C 339.774 36.330,340.000 36.422,340.000 36.480 C 340.000 37.044,346.274 37.427,346.458 36.875 C 346.560 36.571,348.000 36.595,348.000 36.901 C 348.000 38.188,350.420 39.101,351.339 38.161 C 351.830 37.659,352.086 36.167,351.681 36.167 C 351.597 36.167,351.476 35.604,351.411 34.917 C 351.347 34.229,351.228 33.667,351.147 33.667 C 350.952 33.667,350.956 30.713,351.151 30.593 C 351.234 30.542,351.356 29.787,351.421 28.916 C 351.486 28.046,351.606 27.333,351.686 27.333 C 351.767 27.333,351.833 27.107,351.833 26.831 C 351.833 26.555,351.904 26.199,351.991 26.039 C 352.078 25.880,352.193 25.469,352.248 25.125 C 352.303 24.781,352.420 24.500,352.508 24.500 C 352.595 24.500,352.667 24.387,352.667 24.250 C 352.667 24.113,352.742 24.000,352.833 24.000 C 353.840 24.000,352.066 21.024,350.883 20.727 C 350.672 20.674,350.500 20.572,350.500 20.500 C 350.500 20.429,350.238 20.321,349.917 20.261 C 349.596 20.201,349.333 20.080,349.333 19.992 C 349.333 19.905,349.146 19.833,348.917 19.833 C 348.688 19.833,348.500 19.758,348.500 19.667 C 348.500 19.563,347.611 19.500,346.167 19.500 C 344.722 19.500,343.833 19.563,343.833 19.667 M359.333 20.500 C 359.333 20.592,359.253 20.667,359.155 20.667 C 358.725 20.667,358.192 21.598,358.057 22.587 C 358.001 22.997,357.890 23.333,357.811 23.333 C 357.731 23.333,357.667 23.858,357.667 24.500 C 357.667 25.142,357.603 25.667,357.526 25.667 C 357.448 25.667,357.336 26.698,357.275 27.958 C 357.214 29.230,357.091 30.275,356.999 30.306 C 356.908 30.336,356.833 30.617,356.833 30.931 C 356.833 31.244,356.764 31.500,356.680 31.500 C 356.596 31.500,356.474 31.988,356.411 32.583 C 356.347 33.179,356.228 33.667,356.147 33.667 C 356.066 33.667,356.000 34.037,356.000 34.490 C 356.000 34.943,355.925 35.360,355.833 35.417 C 355.742 35.473,355.667 36.036,355.667 36.667 C 355.667 37.298,355.742 37.860,355.833 37.917 C 355.925 37.973,356.000 38.165,356.000 38.342 C 356.000 39.459,358.171 40.000,358.970 39.082 C 359.170 38.852,359.333 38.590,359.333 38.499 C 359.333 38.408,359.397 38.333,359.475 38.333 C 359.553 38.333,359.660 37.304,359.713 36.046 C 359.771 34.646,359.878 33.735,359.988 33.699 C 360.086 33.666,360.167 33.383,360.167 33.069 C 360.167 32.756,360.235 32.500,360.319 32.500 C 360.403 32.500,360.524 31.940,360.588 31.255 C 360.683 30.242,360.763 29.992,361.019 29.911 C 361.192 29.856,361.333 29.741,361.333 29.655 C 361.333 29.570,361.410 29.500,361.503 29.500 C 361.596 29.500,361.927 29.238,362.239 28.917 C 362.551 28.596,362.873 28.333,362.954 28.333 C 363.036 28.333,363.324 28.126,363.593 27.872 C 363.863 27.618,364.308 27.300,364.583 27.164 C 364.858 27.028,365.121 26.873,365.167 26.819 C 365.491 26.438,366.334 26.366,366.357 26.717 C 366.417 27.642,366.283 29.422,366.149 29.472 C 366.067 29.503,366.000 30.272,366.000 31.181 C 366.000 32.090,365.937 32.833,365.860 32.833 C 365.782 32.833,365.668 34.315,365.605 36.125 C 365.540 38.008,365.422 39.440,365.329 39.472 C 365.127 39.541,365.112 41.167,365.314 41.167 C 365.395 41.167,365.500 41.316,365.548 41.498 C 365.772 42.354,368.500 42.390,368.500 41.537 C 368.500 41.440,368.585 41.333,368.688 41.298 C 368.802 41.260,368.909 40.601,368.961 39.618 C 369.007 38.728,369.110 38.000,369.189 38.000 C 369.269 38.000,369.333 36.950,369.333 35.667 C 369.333 34.383,369.397 33.333,369.475 33.333 C 369.552 33.333,369.663 32.505,369.721 31.492 C 369.837 29.465,369.863 29.412,371.000 28.918 C 371.412 28.739,371.787 28.552,371.833 28.502 C 371.957 28.367,373.327 27.982,374.025 27.885 C 374.594 27.807,374.640 27.834,374.746 28.316 C 374.808 28.598,374.928 28.872,375.013 28.925 C 375.228 29.057,375.215 36.167,375.000 36.167 C 374.895 36.167,374.833 37.337,374.833 39.345 C 374.833 42.560,374.912 43.000,375.488 43.000 C 375.586 43.000,375.667 43.075,375.667 43.167 C 375.667 43.258,376.085 43.333,376.596 43.333 C 378.075 43.333,378.500 42.804,378.500 40.963 C 378.500 40.195,378.570 39.495,378.656 39.408 C 378.741 39.321,378.865 37.169,378.930 34.625 C 378.996 32.081,379.114 30.000,379.192 30.000 C 379.270 30.000,379.333 29.400,379.333 28.667 C 379.333 27.889,379.264 27.333,379.167 27.333 C 379.075 27.333,379.000 27.176,379.000 26.984 C 379.000 26.178,377.849 24.500,377.296 24.500 C 377.170 24.500,376.973 24.406,376.859 24.292 C 376.341 23.774,371.333 24.133,371.333 24.688 C 371.333 24.747,371.146 24.830,370.917 24.874 C 370.637 24.928,370.500 24.879,370.500 24.727 C 370.500 24.602,370.425 24.500,370.333 24.500 C 370.242 24.500,370.167 24.387,370.167 24.250 C 370.167 24.113,370.093 24.000,370.003 24.000 C 369.913 24.000,369.793 23.813,369.735 23.583 C 369.678 23.354,369.519 23.167,369.384 23.167 C 369.248 23.167,369.000 22.998,368.833 22.792 C 368.313 22.149,364.333 22.353,364.333 23.023 C 364.333 23.082,364.146 23.178,363.917 23.235 C 363.688 23.293,363.500 23.413,363.500 23.503 C 363.500 23.593,363.417 23.667,363.317 23.667 C 363.216 23.667,362.791 24.004,362.372 24.417 C 361.954 24.829,361.568 25.119,361.514 25.061 C 361.460 25.002,361.510 24.921,361.625 24.880 C 361.740 24.839,361.833 24.549,361.833 24.236 C 361.833 23.923,361.908 23.667,362.000 23.667 C 362.094 23.667,362.167 23.194,362.167 22.583 C 362.167 21.988,362.100 21.500,362.019 21.500 C 361.938 21.500,361.832 21.344,361.782 21.154 C 361.732 20.964,361.536 20.768,361.346 20.718 C 361.156 20.668,361.000 20.562,361.000 20.481 C 361.000 20.400,360.625 20.333,360.167 20.333 C 359.708 20.333,359.333 20.408,359.333 20.500 M43.750 20.816 C 43.567 20.890,43.248 21.008,43.042 21.078 C 42.835 21.148,42.667 21.267,42.667 21.342 C 42.667 21.416,42.500 21.530,42.297 21.595 C 41.892 21.723,40.167 23.413,40.167 23.681 C 40.167 23.772,40.024 24.000,39.851 24.186 C 39.537 24.523,39.534 24.520,39.417 23.666 C 39.144 21.683,36.764 20.863,35.550 22.333 C 35.301 22.636,35.258 25.100,35.500 25.250 C 35.592 25.307,35.667 25.611,35.667 25.927 C 35.667 26.242,35.731 26.500,35.810 26.500 C 35.942 26.500,36.226 28.705,36.438 31.375 C 36.487 31.994,36.587 32.500,36.660 32.500 C 36.734 32.500,36.847 33.362,36.913 34.417 C 36.979 35.471,37.100 36.333,37.183 36.333 C 37.266 36.333,37.333 36.596,37.333 36.917 C 37.333 37.237,37.401 37.500,37.484 37.500 C 37.566 37.500,37.686 37.946,37.749 38.491 C 38.077 41.317,41.833 41.332,41.833 38.508 C 41.833 37.947,41.759 37.500,41.667 37.500 C 41.575 37.500,41.500 37.244,41.500 36.931 C 41.500 36.617,41.406 36.330,41.292 36.292 C 41.135 36.239,41.083 35.430,41.083 33.000 C 41.083 30.570,41.135 29.761,41.292 29.708 C 41.406 29.670,41.500 29.420,41.500 29.153 C 41.500 28.885,41.572 28.667,41.659 28.667 C 41.747 28.667,41.867 28.404,41.928 28.083 C 41.988 27.762,42.085 27.500,42.145 27.500 C 42.204 27.500,42.354 27.270,42.478 26.989 C 42.782 26.301,44.272 24.833,44.665 24.833 C 44.838 24.833,45.027 24.758,45.083 24.666 C 45.302 24.312,45.981 25.070,46.094 25.794 C 46.155 26.184,46.271 26.545,46.353 26.595 C 46.434 26.645,46.500 26.977,46.500 27.333 C 46.500 27.689,46.564 28.020,46.641 28.068 C 46.719 28.116,46.834 29.000,46.897 30.033 C 46.959 31.066,47.083 31.983,47.172 32.072 C 47.261 32.161,47.333 32.481,47.333 32.783 C 47.333 33.086,47.400 33.333,47.481 33.333 C 47.562 33.333,47.680 33.821,47.744 34.417 C 47.808 35.012,47.929 35.500,48.013 35.500 C 48.098 35.500,48.167 35.762,48.167 36.083 C 48.167 36.404,48.235 36.667,48.318 36.667 C 48.401 36.667,48.519 37.029,48.579 37.472 C 48.653 38.008,48.804 38.356,49.032 38.513 C 49.220 38.644,49.472 38.844,49.592 38.958 C 49.843 39.199,51.167 39.243,51.167 39.011 C 51.167 38.925,51.373 38.832,51.625 38.803 C 51.908 38.770,52.146 38.607,52.248 38.375 C 52.338 38.169,52.470 38.000,52.540 38.000 C 52.730 38.000,52.693 36.369,52.500 36.250 C 52.408 36.193,52.333 35.889,52.333 35.573 C 52.333 35.258,52.267 35.000,52.186 35.000 C 52.105 35.000,51.987 34.587,51.924 34.083 C 51.861 33.579,51.740 33.167,51.655 33.167 C 51.570 33.167,51.500 32.904,51.500 32.583 C 51.500 32.262,51.430 32.000,51.345 32.000 C 51.259 32.000,51.137 31.398,51.073 30.663 C 51.009 29.928,50.891 29.286,50.811 29.237 C 50.732 29.187,50.667 28.739,50.667 28.240 C 50.667 27.741,50.602 27.333,50.524 27.333 C 50.445 27.333,50.331 26.790,50.269 26.125 C 50.208 25.460,50.085 24.892,49.995 24.861 C 49.906 24.831,49.833 24.624,49.833 24.403 C 49.833 24.181,49.768 24.000,49.688 24.000 C 49.609 24.000,49.501 23.739,49.450 23.420 C 49.398 23.101,49.182 22.655,48.969 22.428 C 48.757 22.201,48.493 21.919,48.383 21.800 C 48.033 21.421,47.686 21.167,47.521 21.167 C 47.433 21.167,47.331 21.077,47.295 20.967 C 47.216 20.732,44.270 20.606,43.750 20.816 M327.667 21.000 C 327.667 21.092,327.929 21.167,328.250 21.167 C 328.571 21.167,328.833 21.236,328.833 21.320 C 328.833 21.404,329.077 21.526,329.375 21.591 C 330.127 21.754,330.376 22.792,329.812 23.408 C 329.732 23.495,329.667 23.777,329.667 24.033 C 329.667 24.290,329.599 24.500,329.516 24.500 C 329.433 24.500,329.313 24.875,329.250 25.333 C 329.187 25.792,329.067 26.167,328.984 26.167 C 328.901 26.167,328.833 26.354,328.833 26.583 C 328.833 26.813,328.758 27.000,328.667 27.000 C 328.575 27.000,328.500 27.107,328.500 27.239 C 328.500 27.546,326.569 29.500,326.266 29.500 C 326.139 29.500,325.992 29.613,325.940 29.750 C 325.887 29.887,325.654 30.000,325.422 30.000 C 325.190 30.000,325.000 30.075,325.000 30.167 C 325.000 30.258,324.662 30.333,324.250 30.333 C 323.837 30.333,323.500 30.268,323.500 30.188 C 323.500 30.109,323.239 30.001,322.920 29.950 C 322.178 29.829,321.504 29.155,321.384 28.413 C 321.332 28.094,321.225 27.833,321.145 27.833 C 321.065 27.833,321.000 27.346,321.000 26.750 C 321.000 26.154,321.068 25.667,321.151 25.667 C 321.234 25.667,321.352 25.304,321.413 24.862 C 321.483 24.352,321.641 23.972,321.845 23.825 C 322.022 23.697,322.167 23.504,322.167 23.395 C 322.167 23.026,323.651 21.661,324.164 21.559 C 324.440 21.504,324.667 21.393,324.667 21.313 C 324.667 21.232,324.892 21.167,325.167 21.167 C 325.442 21.167,325.667 21.092,325.667 21.000 C 325.667 20.907,326.111 20.833,326.667 20.833 C 327.222 20.833,327.667 20.907,327.667 21.000 M347.667 22.982 C 347.667 23.064,347.854 23.178,348.083 23.235 C 348.533 23.348,348.690 24.243,348.324 24.609 C 348.227 24.706,348.104 25.471,348.049 26.309 C 347.995 27.148,347.887 27.833,347.809 27.833 C 347.731 27.833,347.667 28.926,347.667 30.262 C 347.667 32.875,347.615 33.048,346.770 33.260 C 346.530 33.320,346.333 33.418,346.333 33.477 C 346.333 33.931,342.991 34.304,342.683 33.885 C 342.628 33.811,342.358 33.639,342.083 33.505 C 341.516 33.227,341.000 32.758,341.000 32.521 C 341.000 32.433,340.906 32.330,340.792 32.292 C 340.638 32.240,340.583 31.603,340.583 29.869 C 340.583 28.209,340.645 27.455,340.792 27.308 C 340.906 27.194,341.000 26.965,341.000 26.800 C 341.000 26.635,341.070 26.500,341.155 26.500 C 341.241 26.500,341.364 26.333,341.428 26.130 C 341.567 25.691,343.520 23.667,343.804 23.667 C 343.912 23.667,344.000 23.598,344.000 23.515 C 344.000 23.431,344.300 23.312,344.666 23.250 C 345.032 23.188,345.374 23.069,345.426 22.985 C 345.547 22.789,347.667 22.786,347.667 22.982 M25.949 24.781 C 25.692 24.916,25.406 25.225,25.314 25.466 C 25.124 25.966,25.293 28.789,25.522 28.930 C 25.601 28.979,25.667 29.503,25.667 30.093 C 25.667 30.684,25.731 31.167,25.809 31.167 C 25.887 31.167,26.003 31.973,26.067 32.958 C 26.130 33.943,26.254 34.821,26.341 34.908 C 26.429 34.995,26.500 35.352,26.500 35.700 C 26.500 36.048,26.566 36.333,26.647 36.333 C 26.728 36.333,26.847 37.046,26.912 37.916 C 26.978 38.787,27.099 39.542,27.182 39.593 C 27.265 39.644,27.333 39.906,27.333 40.175 C 27.333 40.743,27.777 41.333,28.204 41.333 C 28.367 41.333,28.500 41.408,28.500 41.500 C 28.500 41.592,28.725 41.667,29.000 41.667 C 29.275 41.667,29.500 41.592,29.500 41.500 C 29.500 41.408,29.685 41.333,29.910 41.333 C 30.656 41.333,31.000 40.745,31.000 39.469 C 31.000 38.823,30.928 38.333,30.833 38.333 C 30.742 38.333,30.667 38.033,30.667 37.667 C 30.667 37.300,30.600 37.000,30.518 37.000 C 30.436 37.000,30.316 36.250,30.250 35.333 C 30.184 34.417,30.064 33.667,29.982 33.667 C 29.900 33.667,29.833 33.292,29.833 32.833 C 29.833 32.375,29.766 32.000,29.684 32.000 C 29.601 32.000,29.480 30.988,29.414 29.750 C 29.347 28.512,29.227 27.500,29.147 27.500 C 29.066 27.500,29.000 27.125,29.000 26.667 C 29.000 26.208,28.934 25.833,28.854 25.833 C 28.774 25.833,28.663 25.608,28.608 25.333 C 28.537 24.975,28.413 24.833,28.171 24.833 C 27.985 24.833,27.833 24.758,27.833 24.667 C 27.833 24.417,26.485 24.499,25.949 24.781 M390.583 27.484 C 389.706 27.713,389.333 27.869,389.333 28.006 C 389.333 28.080,389.119 28.187,388.856 28.245 C 388.594 28.303,388.224 28.515,388.034 28.717 C 387.845 28.918,387.591 29.173,387.470 29.284 C 387.349 29.394,387.158 29.581,387.046 29.700 C 386.714 30.054,386.439 30.329,386.050 30.698 C 385.848 30.889,385.636 31.261,385.578 31.523 C 385.521 31.785,385.404 32.000,385.320 32.000 C 385.236 32.000,385.167 32.112,385.167 32.250 C 385.167 32.387,385.100 32.500,385.019 32.500 C 384.937 32.500,384.821 32.762,384.761 33.083 C 384.701 33.404,384.580 33.667,384.492 33.667 C 384.405 33.667,384.333 33.923,384.333 34.236 C 384.333 34.549,384.240 34.837,384.125 34.875 C 383.970 34.927,383.917 35.626,383.917 37.613 C 383.917 40.302,384.012 40.822,384.625 41.470 C 384.740 41.591,384.833 41.762,384.833 41.849 C 384.833 42.120,386.616 43.833,386.899 43.833 C 387.046 43.833,387.167 43.906,387.167 43.996 C 387.167 44.213,388.063 44.667,388.492 44.667 C 388.680 44.667,388.833 44.725,388.833 44.797 C 388.833 45.043,389.918 45.352,391.125 45.450 C 391.790 45.504,392.333 45.612,392.333 45.691 C 392.333 45.769,392.708 45.833,393.167 45.833 C 393.625 45.833,394.000 45.769,394.000 45.691 C 394.000 45.613,394.686 45.505,395.524 45.451 C 396.362 45.396,397.127 45.273,397.224 45.176 C 397.321 45.079,397.535 45.000,397.700 45.000 C 397.865 45.000,398.000 44.933,398.000 44.851 C 398.000 44.770,398.199 44.653,398.442 44.592 C 399.818 44.246,400.473 41.955,399.512 40.847 C 399.063 40.329,397.836 40.365,397.217 40.914 C 396.403 41.636,396.354 41.667,396.021 41.667 C 395.841 41.667,395.667 41.749,395.633 41.850 C 395.548 42.106,391.453 42.110,391.368 41.854 C 391.334 41.751,391.166 41.667,390.996 41.667 C 390.826 41.667,390.640 41.592,390.583 41.500 C 390.527 41.408,390.340 41.333,390.169 41.333 C 389.997 41.333,389.745 41.221,389.607 41.083 C 389.470 40.946,389.311 40.833,389.255 40.833 C 389.111 40.833,387.833 39.472,387.833 39.318 C 387.833 39.248,387.715 39.073,387.571 38.929 C 387.333 38.690,387.348 38.667,387.738 38.667 C 387.974 38.667,388.167 38.592,388.167 38.500 C 388.167 38.408,388.429 38.333,388.750 38.333 C 389.071 38.333,389.333 38.267,389.333 38.186 C 389.333 38.105,389.896 37.986,390.583 37.922 C 391.271 37.858,391.833 37.736,391.833 37.652 C 391.833 37.569,392.096 37.500,392.417 37.500 C 392.738 37.500,393.000 37.430,393.000 37.343 C 393.000 37.257,393.525 37.135,394.167 37.072 C 394.808 37.009,395.333 36.892,395.333 36.812 C 395.333 36.732,395.596 36.667,395.917 36.667 C 396.238 36.667,396.500 36.592,396.500 36.500 C 396.500 36.408,396.657 36.333,396.850 36.333 C 397.177 36.333,398.315 35.880,398.500 35.675 C 398.546 35.625,398.733 35.501,398.917 35.401 C 400.045 34.784,400.564 30.000,399.503 30.000 C 399.431 30.000,399.073 29.700,398.706 29.333 C 398.339 28.967,397.955 28.667,397.853 28.667 C 397.750 28.667,397.667 28.600,397.667 28.519 C 397.667 28.437,397.395 28.319,397.063 28.257 C 396.731 28.195,396.318 28.074,396.146 27.989 C 395.974 27.903,395.676 27.753,395.485 27.656 C 395.056 27.437,391.271 27.305,390.583 27.484 M393.167 30.978 C 393.167 31.058,393.617 31.175,394.167 31.237 C 394.717 31.299,395.167 31.421,395.167 31.508 C 395.167 31.595,395.279 31.667,395.417 31.667 C 395.554 31.667,395.667 31.737,395.667 31.822 C 395.667 31.908,395.832 32.030,396.034 32.094 C 396.797 32.336,397.054 32.833,396.417 32.833 C 396.188 32.833,396.000 32.901,396.000 32.984 C 396.000 33.067,395.625 33.187,395.167 33.250 C 394.708 33.313,394.333 33.433,394.333 33.516 C 394.333 33.599,394.113 33.667,393.843 33.667 C 393.574 33.667,393.310 33.736,393.258 33.820 C 393.206 33.905,392.676 34.026,392.082 34.090 C 391.487 34.153,391.000 34.272,391.000 34.353 C 391.000 34.434,390.744 34.500,390.431 34.500 C 390.117 34.500,389.836 34.566,389.806 34.647 C 389.775 34.728,389.356 34.848,388.875 34.913 C 387.952 35.038,387.712 34.815,388.218 34.304 C 388.337 34.182,388.487 33.971,388.550 33.833 C 388.861 33.155,389.841 32.000,390.106 32.000 C 390.191 32.000,390.365 31.854,390.493 31.676 C 390.621 31.498,391.013 31.304,391.362 31.245 C 391.712 31.186,392.041 31.069,392.092 30.985 C 392.212 30.791,393.167 30.785,393.167 30.978 " stroke="none" fill="#0c3cf4" fill-rule="evenodd"></path><path id="path1" d="" stroke="none" fill="#103cf4" fill-rule="evenodd"></path><path id="path2" d="" stroke="none" fill="#103cf4" fill-rule="evenodd"></path><path id="path3" d="" stroke="none" fill="#103cf4" fill-rule="evenodd"></path><path id="path4" d="" stroke="none" fill="#103cf4" fill-rule="evenodd"></path></g></svg>